<svg version="1.1" id="Layer_1" xmlns="http://www.w3.org/2000/svg" xmlns:xlink="http://www.w3.org/1999/xlink" 
	 viewBox="0 0 512 512" xml:space="preserve" width="50px" height="50px">
<circle style="fill:#4DE1FF;" cx="256" cy="256" r="256"/>
<g>
	<rect x="83.349" y="213.802" style="fill:#FF6E36;" width="16.879" height="50.637"/>
	<rect x="156.492" y="213.802" style="fill:#FF6E36;" width="16.879" height="50.637"/>
	<rect x="411.772" y="213.802" style="fill:#FF6E36;" width="16.879" height="50.637"/>
	<rect x="338.629" y="213.802" style="fill:#FF6E36;" width="16.879" height="50.637"/>
</g>
<path style="fill:#9FC657;" d="M33.758,256c0,75.086,37.242,141.47,94.256,181.703h71.722V256H33.758z"/>
<path style="fill:#7FB21E;" d="M478.242,256H312.264v181.703h71.722C441,397.47,478.242,331.086,478.242,256z"/>
<path style="fill:#096C80;" d="M199.736,256l-71.722,181.703C164.2,463.236,208.346,478.242,256,478.242s91.8-15.006,127.985-40.539
	L312.264,256H199.736z"/>
<g>
	<rect x="247.56" y="289.758" style="fill:#FFFFFF;" width="16.879" height="29.069"/>
	<rect x="247.56" y="415.418" style="fill:#FFFFFF;" width="16.879" height="29.069"/>
	<rect x="247.56" y="352.582" style="fill:#FFFFFF;" width="16.879" height="29.069"/>
</g>
<path style="fill:#405A0F;" d="M164.936,118.105c-10.876,0-19.692,8.817-19.692,19.692v64.752c0,10.876,8.817,19.692,19.692,19.692
	c10.876,0,19.692-8.817,19.692-19.692v-64.752C184.628,126.922,175.812,118.105,164.936,118.105z"/>
<g>
	<path style="fill:#557714;" d="M91.793,118.105c-10.876,0-19.692,8.817-19.692,19.692v64.752c0,10.876,8.817,19.692,19.692,19.692
		s19.692-8.817,19.692-19.692v-64.752C111.485,126.922,102.669,118.105,91.793,118.105z"/>
	<path style="fill:#557714;" d="M347.064,118.105c10.876,0,19.692,8.817,19.692,19.692v64.752c0,10.876-8.816,19.692-19.692,19.692
		s-19.692-8.817-19.692-19.692v-64.752C327.372,126.922,336.188,118.105,347.064,118.105z"/>
</g>
<path style="fill:#405A0F;" d="M420.207,118.105c10.876,0,19.692,8.817,19.692,19.692v64.752c0,10.876-8.817,19.692-19.692,19.692
	s-19.692-8.817-19.692-19.692v-64.752C400.515,126.922,409.331,118.105,420.207,118.105z"/>
<circle style="fill:#FFD170;" cx="256" cy="78.769" r="45.011"/>
</svg>